bicep_curl
version=1
nRows=227
nColumns=3
inDegrees=yes

# SIMM Motion File Header:
name bicep_curl
datacolumns 3
datarows 227
otherdata 1
range 0.0000 0.2260
endheader
time	/jointset/r_shoulder/r_shoulder_elev/value	/jointset/r_elbow/r_elbow_flex/value
0.0000	0.0000	34.1600
0.0010	0.0000	34.3060
0.0020	0.0000	34.4520
0.0030	0.0000	34.5980
0.0040	0.0000	34.7440
0.0050	0.0000	34.8900
0.0060	0.0000	35.0359
0.0070	0.0000	35.1819
0.0080	0.0000	35.3279
0.0090	0.0000	35.4738
0.0100	0.0000	35.6197
0.0110	0.0000	35.7657
0.0120	0.0000	35.9116
0.0130	0.0000	36.0575
0.0140	0.0000	36.2034
0.0150	0.0000	36.3493
0.0160	0.0000	36.4952
0.0170	0.0000	36.6410
0.0180	0.0000	36.7869
0.0190	0.0000	36.9328
0.0200	0.0000	37.0786
0.0210	0.0000	37.2245
0.0220	0.0000	37.3703
0.0230	0.0000	37.5161
0.0240	0.0000	37.6619
0.0250	0.0000	37.8078
0.0260	0.0000	37.9536
0.0270	0.0000	38.0994
0.0280	0.0000	38.2451
0.0290	0.0000	38.3909
0.0300	0.0000	38.5367
0.0310	0.0000	38.6824
0.0320	0.0000	38.8282
0.0330	0.0000	38.9739
0.0340	0.0000	39.1197
0.0350	0.0000	39.2654
0.0360	0.0000	39.4111
0.0370	0.0000	39.5568
0.0380	0.0000	39.7025
0.0390	0.0000	39.8482
0.0400	0.0000	39.9939
0.0410	0.0000	40.1396
0.0420	0.0000	40.2852
0.0430	0.0000	40.4309
0.0440	0.0000	40.5765
0.0450	0.0000	40.7222
0.0460	0.0000	40.8678
0.0470	0.0000	41.0135
0.0480	0.0000	41.1591
0.0490	0.0000	41.3047
0.0500	0.0000	41.4503
0.0510	0.0000	41.5959
0.0520	0.0000	41.7415
0.0530	0.0000	41.8870
0.0540	0.0000	42.0326
0.0550	0.0000	42.1782
0.0560	0.0000	42.3237
0.0570	0.0000	42.4692
0.0580	0.0000	42.6148
0.0590	0.0000	42.7603
0.0600	0.0000	42.9058
0.0610	0.0000	43.0513
0.0620	0.0000	43.1968
0.0630	0.0000	43.3423
0.0640	0.0000	43.4878
0.0650	0.0000	43.6333
0.0660	0.0000	43.7787
0.0670	0.0000	43.9242
0.0680	0.0000	44.0696
0.0690	0.0000	44.2151
0.0700	0.0000	44.3605
0.0710	0.0000	44.5059
0.0720	0.0000	44.6514
0.0730	0.0000	44.7968
0.0740	0.0000	44.9422
0.0750	0.0000	45.0876
0.0760	0.0000	45.2329
0.0770	0.0000	45.3783
0.0780	0.0000	45.5237
0.0790	0.0000	45.6690
0.0800	0.0000	45.8144
0.0810	0.0000	45.9597
0.0820	0.0000	46.1051
0.0830	0.0000	46.2504
0.0840	0.0000	46.3957
0.0850	0.0000	46.5410
0.0860	0.0000	46.6863
0.0870	0.0000	46.8316
0.0880	0.0000	46.9769
0.0890	0.0000	47.1221
0.0900	0.0000	47.2674
0.0910	0.0000	47.4127
0.0920	0.0000	47.5579
0.0930	0.0000	47.7032
0.0940	0.0000	47.8484
0.0950	0.0000	47.9936
0.0960	0.0000	48.1388
0.0970	0.0000	48.2840
0.0980	0.0000	48.4292
0.0990	0.0000	48.5744
0.1000	0.0000	48.7196
0.1010	0.0000	48.8648
0.1020	0.0000	49.0099
0.1030	0.0000	49.1551
0.1040	0.0000	49.3002
0.1050	0.0000	49.4454
0.1060	0.0000	49.5905
0.1070	0.0000	49.7356
0.1080	0.0000	49.8808
0.1090	0.0000	50.0259
0.1100	0.0000	50.1710
0.1110	0.0000	50.3160
0.1120	0.0000	50.4611
0.1130	0.0000	50.6062
0.1140	0.0000	50.7513
0.1150	0.0000	50.8963
0.1160	0.0000	51.0414
0.1170	0.0000	51.1864
0.1180	0.0000	51.3314
0.1190	0.0000	51.4765
0.1200	0.0000	51.6215
0.1210	0.0000	51.7665
0.1220	0.0000	51.9115
0.1230	0.0000	52.0565
0.1240	0.0000	52.2014
0.1250	0.0000	52.3464
0.1260	0.0000	52.4914
0.1270	0.0000	52.6363
0.1280	0.0000	52.7813
0.1290	0.0000	52.9262
0.1300	0.0000	53.0711
0.1310	0.0000	53.2161
0.1320	0.0000	53.3610
0.1330	0.0000	53.5059
0.1340	0.0000	53.6508
0.1350	0.0000	53.7957
0.1360	0.0000	53.9405
0.1370	0.0000	54.0854
0.1380	0.0000	54.2303
0.1390	0.0000	54.3751
0.1400	0.0000	54.5200
0.1410	0.0000	54.6648
0.1420	0.0000	54.8096
0.1430	0.0000	54.9545
0.1440	0.0000	55.0993
0.1450	0.0000	55.2441
0.1460	0.0000	55.3889
0.1470	0.0000	55.5337
0.1480	0.0000	55.6784
0.1490	0.0000	55.8232
0.1500	0.0000	55.9680
0.1510	0.0000	56.1127
0.1520	0.0000	56.2575
0.1530	0.0000	56.4022
0.1540	0.0000	56.5469
0.1550	0.0000	56.6917
0.1560	0.0000	56.8364
0.1570	0.0000	56.9811
0.1580	0.0000	57.1258
0.1590	0.0000	57.2705
0.1600	0.0000	57.4151
0.1610	0.0000	57.5598
0.1620	0.0000	57.7045
0.1630	0.0000	57.8491
0.1640	0.0000	57.9938
0.1650	0.0000	58.1384
0.1660	0.0000	58.2830
0.1670	0.0000	58.4277
0.1680	0.0000	58.5723
0.1690	0.0000	58.7169
0.1700	0.0000	58.8615
0.1710	0.0000	59.0060
0.1720	0.0000	59.1506
0.1730	0.0000	59.2952
0.1740	0.0000	59.4398
0.1750	0.0000	59.5843
0.1760	0.0000	59.7289
0.1770	0.0000	59.8734
0.1780	0.0000	60.0179
0.1790	0.0000	60.1624
0.1800	0.0000	60.3069
0.1810	0.0000	60.4515
0.1820	0.0000	60.5959
0.1830	0.0000	60.7404
0.1840	0.0000	60.8849
0.1850	0.0000	61.0294
0.1860	0.0000	61.1738
0.1870	0.0000	61.3183
0.1880	0.0000	61.4627
0.1890	0.0000	61.6072
0.1900	0.0000	61.7516
0.1910	0.0000	61.8960
0.1920	0.0000	62.0404
0.1930	0.0000	62.1848
0.1940	0.0000	62.3292
0.1950	0.0000	62.4736
0.1960	0.0000	62.6180
0.1970	0.0000	62.7623
0.1980	0.0000	62.9067
0.1990	0.0000	63.0511
0.2000	0.0000	63.1954
0.2010	0.0000	63.3397
0.2020	0.0000	63.4841
0.2030	0.0000	63.6284
0.2040	0.0000	63.7727
0.2050	0.0000	63.9170
0.2060	0.0000	64.0613
0.2070	0.0000	64.2056
0.2080	0.0000	64.3498
0.2090	0.0000	64.4941
0.2100	0.0000	64.6384
0.2110	0.0000	64.7826
0.2120	0.0000	64.9269
0.2130	0.0000	65.0711
0.2140	0.0000	65.2153
0.2150	0.0000	65.3595
0.2160	0.0000	65.5038
0.2170	0.0000	65.6480
0.2180	0.0000	65.7921
0.2190	0.0000	65.9363
0.2200	0.0000	66.0805
0.2210	0.0000	66.2247
0.2220	0.0000	66.3688
0.2230	0.0000	66.5130
0.2240	0.0000	66.6571
0.2250	0.0000	66.8013
0.2260	0.0000	66.9454
